<?xml version="1.0" encoding="UTF-8"?><svg id="Ebene_2" xmlns="http://www.w3.org/2000/svg" viewBox="0 0 217.4 217.4"><g id="stamp"><g id="stamp_rgb"><path d="M55.71,161.69c-29.26-29.26-29.26-76.71,0-105.97,29.26-29.26,76.71-29.26,105.97,0,29.27,29.26,29.27,76.71,0,105.97-29.26,29.26-76.71,29.27-105.97,0Z" fill="#1e5a96" stroke-width="0"/><path d="M185.56,185.56c42.45-42.45,42.45-111.28,0-153.73-42.45-42.45-111.28-42.45-153.72,0-42.45,42.45-42.45,111.28,0,153.73,42.45,42.45,111.28,42.45,153.73,0ZM54.14,163.27c-30.13-30.13-30.13-78.99,0-109.13,30.13-30.13,78.99-30.13,109.12,0,30.14,30.14,30.13,78.99,0,109.12-30.13,30.13-78.99,30.14-109.12,0Z" fill="#1e5a96" stroke-width="0"/><path id="p" d="M146.86,110.84c-2.72,7.37-18.61,7.31-40.19,7.37,0,0,13.94-1.97,17.97-9.75,4.03-7.78,8.78-23.55,8.78-23.55-21.47,0-23.38,7.52-23.38,7.52,0,0-13.57,37.94-18.41,51.94-37.6,0-31.59-18.57-31.59-18.57l18.81-52.76h38.1l-2.54,7.6s3.1-7.6,24.1-7.6c0,0,21.53.1,19,7.64-2.53,7.54-10.65,30.16-10.65,30.16" fill="#fff" stroke-width="0"/><path d="M19.35,116.78l.05-.03c1.36-.08,2.48.25,3.37.97.89.73,1.44,1.79,1.64,3.2.22,1.49-.15,2.77-1.09,3.83s-2.27,1.73-3.97,1.97l-2.18.32c-1.7.25-3.16,0-4.37-.76s-1.93-1.88-2.14-3.36c-.21-1.42,0-2.6.64-3.54.63-.94,1.62-1.57,2.97-1.89h.06s.15,1.04.15,1.04c-1.09.31-1.88.81-2.38,1.51-.5.7-.67,1.61-.5,2.74.17,1.17.76,2.04,1.77,2.62s2.22.76,3.63.55l2.19-.32c1.43-.21,2.55-.73,3.34-1.57.8-.84,1.11-1.84.94-3.01-.16-1.13-.58-1.96-1.24-2.49-.66-.53-1.58-.79-2.74-.76l-.15-1.03ZM23.44,102.31l-.02,1.1-6.21-.1-.13,7.68,6.21.1-.02,1.1-13.51-.22.02-1.1,6.34.11.13-7.68-6.34-.11.02-1.1,13.51.22ZM21.6,89.51l-1.11,6.09,3.45,2.05-.21,1.13-12.36-7.48.19-1.03,14.2-2.58-.21,1.13-3.96.69ZM19.58,95.06l.98-5.37-7.68,1.33v.06s6.69,3.98,6.69,3.98ZM30.12,74.96l-.38,1.04-13.53,3.26v.06s10.9,3.95,10.9,3.95l-.38,1.05-12.7-4.6.38-1.05,13.52-3.26v-.06s-10.88-3.95-10.88-3.95l.38-1.04,12.7,4.6ZM35.45,61.57c.23.48.32,1.16.25,2.05-.06.88-.4,1.86-1,2.92-.78,1.37-1.88,2.22-3.3,2.57-1.43.35-2.88.1-4.36-.74l-2.15-1.22c-1.45-.82-2.4-1.91-2.84-3.26-.44-1.35-.29-2.69.46-4.01.72-1.26,1.59-2.07,2.63-2.43,1.04-.35,2.09-.3,3.17.16l.04.04-.51.9c-.86-.31-1.69-.34-2.47-.09-.78.25-1.46.87-2.04,1.88-.6,1.05-.7,2.12-.3,3.2.4,1.08,1.19,1.95,2.39,2.63l2.17,1.23c1.23.7,2.42.92,3.6.69,1.17-.24,2.07-.91,2.7-2.01.44-.78.71-1.5.8-2.17.09-.67.07-1.18-.08-1.52l-3.06-1.74-1.77,3.12-.82-.47,2.32-4.09,4.18,2.37ZM40.27,57.68l-.66.9-10.88-8.01.66-.9,10.88,8.01ZM50.02,46.52l-.76.8-13.71-2.39-.03.05,8.44,7.96-.76.81-9.83-9.27.76-.81,13.7,2.38.03-.05-8.43-7.95.76-.8,9.83,9.27ZM60.2,36.35c.02.53-.17,1.19-.58,1.98-.41.79-1.1,1.55-2.07,2.28-1.25.95-2.6,1.3-4.05,1.05s-2.68-1.05-3.71-2.4l-1.5-1.98c-1.01-1.33-1.45-2.71-1.32-4.12.13-1.42.8-2.58,2.01-3.5,1.16-.88,2.28-1.27,3.38-1.19,1.09.08,2.04.55,2.85,1.4l.02.06-.82.62c-.67-.62-1.42-.98-2.23-1.06-.82-.08-1.69.22-2.62.93-.97.73-1.48,1.67-1.54,2.82-.06,1.15.32,2.27,1.15,3.36l1.5,1.99c.85,1.12,1.86,1.81,3.03,2.05,1.17.25,2.26-.01,3.27-.78.71-.54,1.25-1.1,1.6-1.68s.53-1.05.53-1.43l-2.12-2.81-2.86,2.17-.57-.75,3.75-2.84,2.9,3.83ZM72.11,31.57l-1,.48-5.88-12.16,1-.48,5.88,12.16ZM81.25,14.55l-4.39,1.54,4.15,11.86-1.05.37-4.15-11.86-4.39,1.54-.31-.89,9.82-3.44.31.89ZM102.01,17.17l-6.53.75.73,6.29-1.1.13-1.55-13.42,8.56-.99.11.94-7.46.86.61,5.24,6.53-.75.11.94ZM117.27,17.95c-.06,1.74-.59,3.13-1.58,4.18-.99,1.04-2.29,1.53-3.9,1.47-1.58-.06-2.83-.64-3.73-1.75-.9-1.11-1.33-2.54-1.26-4.28l.08-2.2c.06-1.74.58-3.13,1.56-4.18.98-1.05,2.26-1.54,3.84-1.49,1.61.06,2.87.64,3.79,1.76s1.35,2.54,1.29,4.28l-.08,2.2ZM116.25,15.7c.05-1.46-.27-2.65-.98-3.57-.71-.92-1.71-1.4-3.03-1.45-1.29-.05-2.3.36-3.05,1.23-.75.87-1.15,2.03-1.2,3.49l-.08,2.22c-.05,1.47.26,2.67.95,3.59.69.92,1.67,1.4,2.96,1.45,1.32.05,2.36-.36,3.12-1.22.76-.86,1.17-2.03,1.23-3.51l.08-2.22ZM123.44,18.36l-1.2,5.99-1.08-.22,2.65-13.23,4.48.9c1.42.28,2.45.81,3.08,1.59.63.77.83,1.76.59,2.95-.14.7-.47,1.29-.99,1.77-.52.47-1.17.76-1.96.87.78.37,1.29.86,1.55,1.46.25.6.3,1.3.14,2.11l-.25,1.25c-.08.41-.11.79-.08,1.14s.14.65.32.9l-.04.22-1.11-.22c-.18-.26-.28-.6-.29-1.01-.01-.41.03-.83.11-1.26l.24-1.21c.16-.81.03-1.51-.4-2.08-.43-.58-1.12-.96-2.06-1.15l-3.71-.74ZM123.62,17.44l3.27.66c1.19.24,2.12.17,2.76-.2.65-.37,1.06-.97,1.22-1.79.17-.87.04-1.6-.42-2.18-.45-.58-1.24-.98-2.35-1.2l-3.4-.68-1.08,5.39ZM154.1,21.78l-4.23-1.93-5.22,11.42-1.01-.46,5.22-11.42-4.23-1.93.39-.86,9.47,4.33-.39.86ZM160.24,40.48l-.92-.61,3.46-5.17-6.38-4.27-3.46,5.17-.92-.61,7.52-11.22.92.61-3.53,5.27,6.38,4.27,3.53-5.27.92.61-7.52,11.22ZM173.84,43.77l-4.78-4.41-3.79,4.11,5.48,5.05-.64.7-6.29-5.8,9.16-9.93,6.25,5.77-.64.7-5.44-5.02-3.44,3.73,4.78,4.41-.64.7ZM176.69,56.93l11.12-7.67,2.24,3.25c.8,1.16,1.17,2.22,1.13,3.2-.04.98-.55,1.81-1.53,2.48-.57.39-1.18.57-1.82.54-.65-.03-1.24-.27-1.79-.71.34.76.41,1.53.18,2.31s-.67,1.4-1.34,1.86c-.99.68-1.98.89-2.96.61s-1.84-.95-2.58-2.03l-2.65-3.84ZM182.67,54.15l-4.58,3.15,2.02,2.93c.56.82,1.21,1.33,1.94,1.52.73.19,1.45.04,2.18-.46.67-.46,1.06-1.05,1.2-1.77.13-.72-.08-1.48-.64-2.29l-2.12-3.08ZM183.45,53.61l1.76,2.56c.55.8,1.16,1.31,1.82,1.5.66.2,1.33.06,2.02-.42.7-.48,1.07-1.08,1.1-1.79.03-.71-.26-1.52-.88-2.41l-1.61-2.34-4.21,2.9ZM192.96,71.77l-2.87-5.84-5.02,2.46,3.28,6.69-.85.42-3.77-7.68,12.13-5.95,3.75,7.64-.85.42-3.26-6.65-4.56,2.24,2.87,5.84-.85.42ZM203.74,84.48l-1.38-4.44-11.99,3.74-.33-1.06,11.99-3.74-1.38-4.44.9-.28,3.1,9.94-.9.28ZM206.33,99.6l-.67-4.6-12.43,1.81-.16-1.1,12.43-1.81-.67-4.6.94-.14,1.5,10.3-.94.14ZM200.53,112.75l.11-6.5-5.59-.09-.12,7.45-.95-.02.14-8.55,13.51.22-.14,8.51-.95-.02.12-7.4-5.07-.08-.11,6.5h-.95ZM199.61,119.31l-6.03-.93.17-1.09,13.34,2.05-.69,4.52c-.22,1.43-.7,2.48-1.45,3.15s-1.72.91-2.92.72c-.71-.11-1.31-.41-1.81-.91-.5-.5-.82-1.14-.96-1.92-.33.79-.8,1.33-1.39,1.61-.59.28-1.29.36-2.1.24l-1.26-.19c-.42-.06-.8-.07-1.14-.03-.34.05-.64.17-.88.36l-.22-.03.17-1.12c.25-.19.59-.3,1-.33.41-.03.83-.01,1.26.05l1.22.19c.82.13,1.51-.04,2.06-.5s.91-1.16,1.05-2.11l.57-3.74ZM200.55,119.46l-.5,3.29c-.18,1.2-.08,2.12.32,2.75.4.63,1.01,1.01,1.84,1.14.88.13,1.6-.04,2.16-.52s.92-1.28,1.1-2.4l.53-3.43-5.44-.83Z" fill="#fff" stroke-width="0"/><path d="M37.69,167.92c.38-.33.79-.48,1.24-.45.45.03.85.25,1.2.65.35.41.52.84.49,1.29-.03.45-.23.84-.61,1.17l-.39.34c-.38.33-.8.48-1.24.44-.44-.04-.84-.26-1.2-.67-.35-.41-.52-.84-.49-1.28.03-.45.23-.83.61-1.16l.39-.34ZM55.08,187.1l-2.34,3.56-2.42-1.59,6.83-10.4,4.22,2.77c1.23.81,2,1.77,2.31,2.88.31,1.11.13,2.17-.54,3.19-.67,1.02-1.58,1.61-2.71,1.76s-2.32-.18-3.55-.99l-1.8-1.18ZM56.3,185.24l1.8,1.18c.52.34,1.02.46,1.48.35s.84-.39,1.14-.84c.3-.46.42-.93.33-1.41-.08-.48-.38-.88-.91-1.23l-1.8-1.18-2.05,3.12ZM77.67,189.93l-3.36,7.43c-.58,1.29-1.47,2.1-2.65,2.42-1.18.32-2.47.17-3.86-.46-1.41-.64-2.38-1.5-2.92-2.61-.54-1.1-.52-2.3.07-3.59l3.36-7.43,2.64,1.19-3.36,7.43c-.31.7-.37,1.29-.16,1.79.21.5.64.89,1.29,1.19.65.29,1.22.35,1.72.18.5-.17.91-.61,1.23-1.31l3.36-7.43,2.64,1.19ZM81.49,201.84l5.45,1.53-.6,2.14-8.88-2.49.35-1.25,7.77-7.09-5.38-1.51.6-2.14,8.83,2.48-.34,1.2-7.8,7.13ZM94.94,204.73l5.62.74-.29,2.2-9.14-1.2.17-1.29,6.68-8.12-5.54-.73.29-2.2,9.09,1.2-.16,1.24-6.71,8.17ZM108.24,205.71l5.36-.09.04,2.22-8.25.13-.2-12.44,2.9-.05.17,10.22ZM125.39,201.2l-4.83.67.42,3.07,5.7-.79.3,2.2-8.57,1.18-1.7-12.33,8.58-1.18.3,2.2-5.71.79.37,2.65,4.83-.67.3,2.2ZM141.85,202.26l-2.73.92-3.98-11.79,2.73-.92,3.98,11.79ZM150.64,187.37l-2.97,1.39,4.33,9.26-2.62,1.23-4.33-9.26-2.95,1.38-.94-2.01,8.55-4,.94,2.01ZM164.92,185.27l.04.03c.75,1.25,1,2.42.75,3.5-.25,1.09-1.02,2.05-2.3,2.89-1.29.84-2.59,1.14-3.91.87-1.32-.26-2.4-1.02-3.23-2.29l-1.43-2.17c-.83-1.26-1.11-2.54-.86-3.84s1-2.36,2.24-3.17c1.31-.86,2.54-1.19,3.67-.99s2.14.89,3.03,2.05v.05s-2.34,1.54-2.34,1.54c-.48-.65-.96-1.06-1.44-1.21-.48-.15-1.05-.01-1.7.41-.55.36-.83.86-.86,1.51-.03.65.2,1.33.67,2.04l1.44,2.18c.47.72,1.03,1.19,1.66,1.41s1.25.13,1.85-.26c.58-.38.89-.81.93-1.28.04-.47-.15-1.05-.56-1.75l2.35-1.54ZM177.29,170.71c-.38-.33-.58-.72-.61-1.17s.13-.88.48-1.28c.35-.41.76-.63,1.21-.66.45-.03.87.11,1.25.44l.39.34c.38.33.59.72.61,1.17.03.44-.14.87-.5,1.28-.36.41-.76.63-1.2.67-.45.04-.86-.11-1.24-.44l-.39-.34Z" fill="#fff" stroke-width="0"/></g></g></svg>